# xmcd
#
# Track frame offsets:
#	150
#	14875
#	33472
#	57127
#	76453
#	97448
#	118657
#	136944
#	146863
#	159269
#	171987
#	183811
#	204737
#	221047
#	237452
#
# Disc length: 3357 seconds
#
# Revision: 0
# Processed by: cddbd v1.4PL0 Copyright (c) Steve Scherf et al.
# Submitted via: EasyCDDAExtractor 4.5.0.1
#
DISCID=e40d1b0f
DTITLE=Grupo Coral de Caparrosa - Ao luar
DYEAR=2001
DGENRE=country
TTITLE0=Que  lindo brilho tem o luar
TTITLE1=Serenata
TTITLE2=Vira da aldeia
TTITLE3=Valsa a dois
TTITLE4=O sol se esconde
TTITLE5=As pombinhas
TTITLE6=Já fui à Madeira
TTITLE7=Morena
TTITLE8=Ilha azul
TTITLE9=Dá-me um beijinho
TTITLE10=Valsa maravilhosa
TTITLE11=Paixão
TTITLE12=15 de Maio
TTITLE13=Falta ao dever por consciência
TTITLE14=Sétimo filho homem
EXTD=
EXTT0=
EXTT1=
EXTT2=
EXTT3=
EXTT4=
EXTT5=
EXTT6=
EXTT7=
EXTT8=
EXTT9=
EXTT10=
EXTT11=
EXTT12=
EXTT13=
EXTT14=
PLAYORDER=
